<svg id="Layer_3" enable-background="new 0 0 64 64" height="512" viewBox="0 0 64 64" width="512" xmlns="http://www.w3.org/2000/svg"><g><path d="m34 53v.611c0 1.955 1.414 3.624 3.342 3.946l7.3 1.217c.784.13 1.358.808 1.358 1.602 0 .897-.727 1.624-1.624 1.624h-24.752c-.897 0-1.624-.727-1.624-1.624 0-.794.574-1.472 1.357-1.602l7.3-1.217c1.929-.321 3.343-1.99 3.343-3.946v-.611" fill="#d8923e"/><path d="m30 24h4v25h-4z" fill="#8f6128"/><path d="m5.578 24h52.845c1.975 0 3.577-1.602 3.577-3.578 0-1.463-.891-2.779-2.249-3.322l-2.751-1.1c.919 1.838-.417 4-2.472 4h-45.056c-2.055 0-3.391-2.162-2.472-4l-2.751 1.1c-1.358.544-2.249 1.859-2.249 3.322 0 1.976 1.602 3.578 3.578 3.578z" fill="#f2c351"/><path d="m30 16h4v4h-4z" fill="#8f6128"/><path d="m34 12-1.039-4.157h-1.922l-1.039 4.157z" fill="#8f6128"/><circle cx="32" cy="5" fill="#bc7f35" r="3"/><path d="m28 12h8v4h-8z" fill="#bc7f35"/><circle cx="32" cy="51" fill="#bc7f35" r="3"/><path d="m42 46c0 3.314 4.477 6 10 6s10-2.686 10-6z" fill="#c16b3f"/><circle cx="52" cy="27" fill="#f2c351" r="3"/><path d="m2 46c0 3.314 4.477 6 10 6s10-2.686 10-6z" fill="#c16b3f"/><circle cx="12" cy="27" fill="#f2c351" r="3"/><path d="m14.23 25.01c-.55-.615-1.34-1.01-2.23-1.01-1.657 0-3 1.343-3 3 0 .907.411 1.711 1.048 2.261 2.075-.517 3.699-2.163 4.182-4.251z" fill="#f7d881"/><path d="m54.23 25.01c-.55-.615-1.34-1.01-2.23-1.01-1.657 0-3 1.343-3 3 0 .907.411 1.711 1.048 2.261 2.075-.517 3.699-2.163 4.182-4.251z" fill="#f7d881"/><g fill="#d8923e"><path d="m33.547 2.442c-.453-.275-.978-.442-1.547-.442-1.657 0-3 1.343-3 3 0 .676.232 1.293.609 1.794 2.024-.563 3.575-2.252 3.938-4.352z"/><path d="m28 12v4h3.109c1.511-.778 2.588-2.247 2.82-4z"/><path d="m33.912 48.706c-.52-.434-1.181-.706-1.912-.706-1.657 0-3 1.343-3 3 0 .632.197 1.216.531 1.7 2.028-.544 3.659-2.045 4.381-3.994z"/></g><path d="m18.244 46h-16.244c0 3.261 4.339 5.909 9.741 5.992 2.806-1.176 5.105-3.311 6.503-5.992z" fill="#e39854"/><path d="m58.244 46h-16.244c0 3.261 4.339 5.909 9.741 5.992 2.806-1.176 5.105-3.311 6.503-5.992z" fill="#e39854"/><path d="m62.847 45.469-9.253-14.805c1.413-.618 2.405-2.026 2.405-3.664 0-.732-.212-1.41-.556-2.001h2.979c2.524 0 4.578-2.054 4.579-4.578 0-1.882-1.129-3.55-2.878-4.25l-2.751-1.1c-.385-.155-.826-.054-1.107.251-.281.306-.344.753-.158 1.124.279.559.251 1.185-.077 1.716-.329.532-.876.837-1.5.838l-19.529-.001v-2.001h1c.553 0 1-.447 1-1v-3.999c0-.553-.447-1-1-1h-1.221l-.656-2.625c1.123-.709 1.875-1.952 1.875-3.375 0-2.206-1.794-4-4-4s-4 1.794-4 4c0 1.423.753 2.666 1.875 3.375l-.656 2.625h-1.218c-.553 0-1 .447-1 1v3.999c0 .553.447 1 1 1h1v2.001l-19.529-.001c0 .001-.001.001-.001.001-.624 0-1.17-.305-1.499-.836-.329-.532-.357-1.157-.078-1.717.186-.371.123-.818-.158-1.124-.281-.305-.719-.406-1.107-.251l-2.751 1.1c-1.748.7-2.877 2.368-2.877 4.25 0 2.523 2.054 4.577 4.578 4.579h.001 2.978c-.346.591-.557 1.268-.557 2 0 1.638.992 3.046 2.405 3.664l-9.254 14.805.016.01c-.097.154-.167.325-.167.521 0 3.925 4.832 6.999 11 6.999s11-3.074 11-6.999c0-.196-.071-.367-.167-.521l.016-.01-9.253-14.805c1.413-.618 2.405-2.026 2.405-3.664 0-.732-.212-1.409-.556-2h13.555v23.381c-.615.703-1 1.612-1 2.618 0 1.005.385 1.913 1 2.617-.003 1.47-1.055 2.713-2.506 2.954l-7.301 1.218c-1.272.211-2.193 1.299-2.193 2.587 0 1.447 1.177 2.625 2.624 2.625h24.752c1.447 0 2.624-1.178 2.624-2.625 0-1.288-.922-2.376-2.192-2.589l-7.3-1.217c-1.451-.241-2.504-1.483-2.507-2.954.614-.703 1-1.612 1-2.617 0-1.006-.385-1.915-1-2.618v-23.381h13.557c-.347.591-.558 1.269-.558 2.001 0 1.638.992 3.046 2.405 3.664l-9.253 14.805.016.01c-.098.154-.168.325-.168.521 0 3.925 4.832 6.999 11 6.999s11-3.074 11-6.999c0-.196-.071-.367-.167-.521zm-30.847-42.47c1.103 0 2 .896 2 2 0 1.103-.897 1.999-2 1.999s-2-.896-2-1.999.896-2 2-2zm-.215 5.977c.073.004.141.022.215.022.073 0 .141-.018.214-.022l.505 2.023h-1.439zm-2.785 4.023h6v1.999h-6zm1.999 3.999h2v2.001h-2zm-28 3.423c0-1.06.636-1.999 1.621-2.394l1.101-.439c.054.566.237 1.122.55 1.627.69 1.117 1.887 1.784 3.199 1.784h.001l45.057.001c1.314-.001 2.511-.669 3.202-1.787.312-.504.495-1.06.548-1.626l1.101.44c.985.395 1.621 1.334 1.621 2.394 0 1.422-1.157 2.578-2.579 2.578h-6.421-.001s-.001 0-.001 0l-39.99.001c-.003 0-.006-.001-.008-.001s-.006.001-.009.001h-6.413c-1.422-.001-2.579-1.158-2.579-2.579zm9.001 11.465 8.196 13.114h-16.394zm0 19.113c-4.265 0-7.95-1.749-8.811-3.999h17.621c-.861 2.25-4.546 3.999-8.81 3.999zm1.999-23.999c0 1.103-.897 2-2 2s-2-.897-2-2c0-1.101.893-1.995 1.992-2h.017c1.099.005 1.991.899 1.991 2zm20 23.999c0 1.103-.897 1.999-2 1.999s-2-.896-2-1.999c0-1.104.897-2 2-2s2 .897 2 2zm3.179 7.544 7.3 1.216c.302.051.521.31.521.616 0 .344-.28.625-.624.625h-24.751c-.345 0-.624-.281-.624-.625 0-.307.219-.565.521-.615l7.3-1.217c2.013-.335 3.551-1.833 4.017-3.737.37.113.754.192 1.161.192.406 0 .791-.079 1.161-.192.467 1.904 2.004 3.402 4.018 3.737zm-4.178-11.402c-.321-.084-.653-.142-1-.142-.348 0-.679.059-1 .142v-22.141h2zm18.998-22.142h.002c1.103.001 1.999.898 1.999 2.001s-.897 2-2 2-2-.897-2-2c.001-1.103.897-2 1.999-2.001zm8.198 20.001h-16.394l8.198-13.114zm-8.196 5.999c-4.265 0-7.95-1.749-8.811-3.999h17.621c-.861 2.25-4.546 3.999-8.81 3.999z"/></g></svg>