<?xml version="1.0"?>
<svg xmlns="http://www.w3.org/2000/svg" xmlns:xlink="http://www.w3.org/1999/xlink" xmlns:svgjs="http://svgjs.com/svgjs" version="1.1" width="512" height="512" x="0" y="0" viewBox="0 0 511.993 511.993" style="enable-background:new 0 0 512 512" xml:space="preserve" class=""><g><g xmlns="http://www.w3.org/2000/svg"><g><g><path d="m427.619 407.752c0 22.232 7.949 42.402 20.839 57.167h-314.121c-3.215 0-6.248-1.53-8.111-4.15-5.285-7.431-15-24.912-15-53.017s9.715-45.586 15-53.017c1.863-2.62 4.897-4.15 8.111-4.15h314.121c-12.889 14.766-20.839 34.935-20.839 57.167z" fill="#b5b5b5" data-original="#fb3a82" style="" class=""/><path d="m207.06 350.587-88.58 95.95c-3.87-9.31-7.25-22.19-7.25-38.78 0-28.11 9.71-45.59 15-53.02 1.86-2.62 4.89-4.15 8.11-4.15z" fill="#605e5e" data-original="#fb1466" style="" class=""/><path d="m462.184 407.752c0 22.232 7.949 42.402 20.839 57.167h-318.901s-18.331-18.561-18.331-57.167 18.331-57.167 18.331-57.167h318.901c-12.889 14.766-20.839 34.935-20.839 57.167z" fill="#e0d3ce" data-original="#e0d3ce" style="" class=""/><g fill="#cdbfbb"><path d="m207.06 350.587-60.94 66.01c-.21-2.82-.33-5.77-.33-8.84 0-38.61 18.33-57.17 18.33-57.17z" fill="#cdbfbb" data-original="#cdbfbb" style="" class=""/><path d="m462.186 407.756c0 22.234 7.949 42.397 20.84 57.164h-37.787c-12.89-14.767-20.84-34.93-20.84-57.164s7.949-42.411 20.84-57.164h37.787c-12.891 14.754-20.84 34.931-20.84 57.164z" fill="#cdbfbb" data-original="#cdbfbb" style="" class=""/></g></g><g><g><path d="m504.49 339.917c0 4.58-1.86 8.73-4.86 11.73s-7.15 4.86-11.73 4.86h-317.05c-9.16 0-16.59-7.43-16.59-16.59 0-4.58 1.86-8.74 4.86-11.74s7.15-4.86 11.73-4.86h317.05c9.16 0 16.59 7.43 16.59 16.6z" fill="#b5b5b5" data-original="#fb3a82" style="" class=""/><g fill="#fb1466"><path d="m232.23 323.317-30.63 33.19h-30.75c-9.16 0-16.59-7.43-16.59-16.59 0-4.58 1.86-8.74 4.86-11.74s7.15-4.86 11.73-4.86z" fill="#605e5e" data-original="#fb1466" style="" class=""/><path d="m504.5 339.91c0 4.582-1.863 8.736-4.858 11.731-3.009 3.009-7.163 4.872-11.745 4.872h-32.184c4.582 0 8.736-1.863 11.731-4.872 2.995-2.995 4.858-7.149 4.858-11.731 0-9.164-7.425-16.589-16.589-16.589h32.184c9.164 0 16.603 7.425 16.603 16.589z" fill="#605e5e" data-original="#fb1466" style="" class=""/></g></g><g><path d="m487.9 492.184h-317.049c-9.165 0-16.594-7.429-16.594-16.594 0-9.165 7.429-16.594 16.594-16.594h317.049c9.165 0 16.594 7.429 16.594 16.594 0 9.164-7.43 16.594-16.594 16.594z" fill="#b5b5b5" data-original="#fb3a82" style="" class=""/><path d="m504.5 475.589c0 4.582-1.863 8.736-4.858 11.731-3.009 2.995-7.163 4.858-11.745 4.858h-32.184c4.582 0 8.736-1.863 11.731-4.858s4.858-7.149 4.858-11.731c0-9.164-7.425-16.589-16.589-16.589h32.184c9.164 0 16.603 7.425 16.603 16.589z" fill="#605e5e" data-original="#fb1466" style="" class=""/></g></g></g><g><g><g><path d="m225.943 300.646-26.789-26.789-182.364 168.347c-12.051 11.125-12.429 30.041-.832 41.638 11.597 11.597 30.513 11.219 41.638-.832z" fill="#873f30" data-original="#873f30" style="" class=""/><path d="m56.79 483.852c-11.213 11.213-29.512 11.308-40.829-.009-3.348-3.348-5.693-7.302-7.043-11.507 10.002 3.253 21.414.874 29.304-7.017.277-.277.554-.571.822-.856l168.351-182.367 18.55 18.55-168.35 182.366c-.268.286-.537.571-.805.84z" fill="#6c3328" data-original="#6c3328" style="" class=""/></g><path d="m252.323 210.382-61.687 73.584 25.2 25.199 73.583-61.687z" fill="#873f30" data-original="#873f30" style="" class=""/><path d="m252.323 210.382-19.933 23.777 5.981 5.981c4.402 4.402 4.402 11.54 0 15.942l-37.809 37.809 15.274 15.273 73.583-61.687z" fill="#6c3328" data-original="#6c3328" style="" class=""/><g><path d="m199.988 324.275-24.462-24.462c-7.072-7.072-7.072-18.538 0-25.61 7.072-7.072 18.538-7.072 25.61 0l24.462 24.462c7.072 7.072 7.072 18.538 0 25.61-7.072 7.072-18.538 7.072-25.61 0z" fill="#ba5d4f" data-original="#ba5d4f" style="" class=""/><path d="m225.591 324.274c-3.539 3.539-8.176 5.304-12.796 5.304-4.637 0-9.275-1.765-12.813-5.304l-18.541-18.541c3.539 3.539 8.176 5.304 12.805 5.295 4.629.009 9.266-1.756 12.805-5.295 7.077-7.077 7.069-18.541 0-25.61l18.541 18.541c7.076 7.078 7.076 18.533-.001 25.61z" fill="#a34f41" data-original="#a34f41" style="" class=""/></g></g><g><path d="m230.41 51.73h76.825v120.612h-76.825z" fill="#ba5d4f" transform="matrix(.707 .707 -.707 .707 157.958 -157.272)" data-original="#ba5d4f" style="" class=""/><path d="m349.353 170.673h76.825v120.612h-76.825z" fill="#a34f41" transform="matrix(-.707 -.707 .707 -.707 498.63 668.496)" data-original="#a34f41" style="" class=""/></g><g><path d="m183.733 146.192-1.887-1.887c-7.155-7.155-7.155-18.754 0-25.909l93.336-93.336c7.155-7.155 18.754-7.155 25.909 0l1.887 1.887c7.155 7.155 7.155 18.754 0 25.909l-93.336 93.336c-7.154 7.154-18.754 7.154-25.909 0z" fill="#873f30" data-original="#873f30" style="" class=""/><path d="m353.609 316.068 1.887 1.887c7.155 7.155 18.754 7.155 25.909 0l93.336-93.336c7.155-7.155 7.155-18.754 0-25.909l-1.887-1.887c-7.155-7.155-18.754-7.155-25.909 0l-93.336 93.336c-7.154 7.154-7.154 18.754 0 25.909z" fill="#6c3328" data-original="#6c3328" style="" class=""/><g><path d="m285.157 80.428h86.274v182.16h-86.274z" fill="#fcc16d" transform="matrix(.707 .707 -.707 .707 217.429 -181.905)" data-original="#fcc16d" style=""/><path d="m252.278 164.738h182.16v43.666h-182.16z" fill="#fca62f" transform="matrix(.707 -.707 .707 .707 -31.359 297.436)" data-original="#fca62f" style="" class=""/><path d="m362.47 73.997-14.944-6.109c-5.123-2.094-11.002-.911-14.916 3.003l-104.933 104.933c-3.913 3.913-5.097 9.793-3.003 14.916l6.109 14.944c2.477 6.06 10.327 7.64 14.956 3.011l119.742-119.741c4.629-4.629 3.048-12.479-3.011-14.957z" fill="#873f30" data-original="#873f30" style="" class=""/><path d="m425.804 137.331 6.109 14.944c2.094 5.123.911 11.002-3.003 14.916l-104.933 104.933c-3.913 3.913-9.793 5.097-14.916 3.003l-14.944-6.109c-6.06-2.477-7.64-10.327-3.011-14.956l119.741-119.741c4.63-4.629 12.479-3.049 14.957 3.01z" fill="#6c3328" data-original="#6c3328" style="" class=""/><g><path d="m487.9 451.495h-5.579c-2.489-3.864-4.671-7.99-6.461-12.314-1.585-3.828-5.972-5.645-9.799-4.061-3.827 1.585-5.645 5.972-4.061 9.799.927 2.24 1.964 4.425 3.056 6.576h-294.205c-2.266 0-4.456.321-6.537.909-4.689-7.95-11.023-22.733-11.023-44.652 0-3.27.145-6.494.427-9.653h143.695c4.143 0 7.5-3.358 7.5-7.5s-3.357-7.5-7.5-7.5h-137.378l17.623-19.09h287.359c-3.086 6.058-5.505 12.452-7.22 19.09h-98.584c-4.143 0-7.5 3.358-7.5 7.5s3.357 7.5 7.5 7.5h95.959c-.294 3.048-.464 6.125-.477 9.229-.018 4.142 3.326 7.514 7.469 7.532h.032c4.127 0 7.481-3.337 7.499-7.468.066-15.749 4.431-30.713 12.612-43.383h5.594c13.285 0 24.094-10.809 24.094-24.094s-10.809-24.094-24.094-24.094h-93.755l85.898-85.899c4.878-4.877 7.563-11.361 7.563-18.258s-2.686-13.381-7.562-18.256l-1.888-1.889c-4.877-4.876-11.361-7.563-18.258-7.563-6.29 0-12.233 2.241-16.93 6.334l-13.276-13.276 4.52-4.52c6.067-6.066 7.89-15.117 4.643-23.058l-6.109-14.944c-2.107-5.154-6.615-8.891-12.066-10.012l-10.431-10.431c-2.93-2.929-7.678-2.929-10.607 0s-2.929 7.678 0 10.606l5.132 5.132-118.2 118.199-34.761-34.76 118.201-118.2 4.601 4.601c1.464 1.465 3.384 2.197 5.303 2.197s3.839-.732 5.304-2.197c2.929-2.929 2.929-7.678-.001-10.606l-9.9-9.9c-1.121-5.451-4.858-9.959-10.012-12.067-.001 0-.001 0-.001 0l-14.943-6.109c-7.938-3.245-16.991-1.425-23.058 4.642l-4.52 4.52-13.278-13.276c4.093-4.697 6.333-10.64 6.333-16.93 0-6.897-2.686-13.381-7.562-18.256l-1.888-1.889c-4.877-4.876-11.361-7.563-18.258-7.563s-13.381 2.686-18.258 7.563l-93.335 93.335c-4.877 4.877-7.563 11.361-7.563 18.258s2.686 13.381 7.563 18.257l1.886 1.887c4.877 4.877 11.361 7.563 18.258 7.563 6.291 0 12.233-2.241 16.931-6.334l13.277 13.278-4.521 4.521c-6.066 6.066-7.888 15.117-4.642 23.057l6.109 14.943c2.085 5.1 6.521 8.809 11.895 9.972l-37.606 44.859c-9.282-3.831-20.376-1.984-27.907 5.548-4.837 4.837-7.501 11.268-7.501 18.108 0 3.062.538 6.04 1.561 8.831l-17.055 15.744c-3.043 2.81-3.233 7.554-.423 10.598 1.478 1.602 3.492 2.413 5.513 2.413 1.819 0 3.643-.658 5.085-1.989l15.76-14.548 18.58 18.58-139.657 151.285c-3.983 4.314-9.41 6.755-15.281 6.873-5.88.113-11.391-2.104-15.543-6.257s-6.374-9.672-6.257-15.543 2.558-11.298 6.873-15.281l109.548-101.128c3.043-2.81 3.233-7.555.423-10.598-2.808-3.043-7.553-3.234-10.598-.423l-109.548 101.128c-7.342 6.778-11.495 16.012-11.695 26.002s3.582 19.384 10.647 26.449c6.888 6.889 15.988 10.655 25.697 10.655.25 0 .501-.002.752-.007 9.99-.2 19.225-4.353 26.002-11.695l44.95-48.693c3.665 12.565 8.836 21.182 12.058 25.712 3.252 4.573 8.569 7.303 14.223 7.303h12.635c-.137 1.038-.215 2.095-.215 3.17 0 13.285 10.809 24.094 24.094 24.094h317.05c13.285 0 24.094-10.809 24.094-24.094-.001-13.285-10.809-24.094-24.094-24.094zm9.093-111.58c0 5.014-4.079 9.094-9.094 9.094h-296.394l12.467-13.505c2.842 1.038 5.831 1.563 8.821 1.563 5.985 0 11.967-2.087 16.762-6.246h258.345c5.014 0 9.093 4.08 9.093 9.094zm-226.262-86.557-43.427 36.407-17.267-17.266 36.407-43.428zm-32.718 62.463c.81-4.735.291-9.654-1.564-14.15l44.858-37.606c1.164 5.373 4.873 9.81 9.972 11.895l14.944 6.109c2.613 1.068 5.346 1.587 8.054 1.587 5.52 0 10.934-2.16 15.003-6.229l4.521-4.521 13.277 13.277c-7.267 8.354-8.262 20.298-2.985 29.637h-106.08zm221.887-116.864c2.891 0 5.607 1.126 7.65 3.168l1.888 1.889c2.044 2.043 3.169 4.761 3.169 7.65 0 2.89-1.125 5.607-3.17 7.651l-93.336 93.336c-2.043 2.043-4.761 3.169-7.65 3.169s-5.607-1.125-7.65-3.169l-1.887-1.887c-4.219-4.219-4.219-11.083 0-15.302l93.336-93.336c2.042-2.044 4.76-3.169 7.65-3.169zm-27.587 1.891-74.678 74.678-13.227-13.226 74.678-74.679zm-135.903 58.517 119.741-119.741c.38-.38.794-.49 1.146-.49.129 0 .249.015.355.036.397.08.931.318 1.209 1l6.109 14.944c.954 2.333.419 4.991-1.364 6.773l-104.933 104.935c-1.78 1.781-4.44 2.317-6.773 1.363l-14.943-6.109c-.682-.278-.92-.811-1-1.209s-.067-.982.453-1.502zm-99.722-115.307c-2.89 0-5.607-1.125-7.65-3.169l-1.887-1.887c-2.044-2.043-3.169-4.76-3.169-7.65 0-2.891 1.125-5.607 3.169-7.651l93.336-93.336c2.043-2.044 4.761-3.169 7.65-3.169 2.891 0 5.607 1.126 7.65 3.168l1.888 1.889c2.044 2.043 3.169 4.761 3.169 7.651s-1.125 5.607-3.17 7.651l-93.335 93.336c-2.044 2.041-4.761 3.167-7.651 3.167zm27.586-1.891 74.679-74.679 13.227 13.227-74.679 74.679zm8.706 38.96 104.934-104.934c1.195-1.195 2.785-1.83 4.407-1.83.796 0 1.599.153 2.367.467l14.943 6.109c.681.278.919.811.999 1.209s.066.981-.454 1.501l-119.74 119.741c-.52.52-1.103.533-1.502.454-.397-.08-.93-.318-1.208-1l-6.11-14.944c-.953-2.332-.418-4.99 1.364-6.773zm-55.258 105.881c0-2.833 1.104-5.498 3.107-7.501 4.137-4.136 10.866-4.136 15.003 0l24.461 24.461c4.137 4.137 4.137 10.867 0 15.003s-10.867 4.136-15.003 0l-24.46-24.461c-2.004-2.004-3.108-4.668-3.108-7.502zm-45.384 169.414c-3.328-4.679-9.204-14.745-12.012-30.309l17.978-19.474c-.003.371-.012.741-.012 1.113 0 23.126 6.275 39.717 11.633 49.667h-15.587c-.809 0-1.556-.372-2-.997zm355.562 28.261h-317.049c-5.014 0-9.094-4.08-9.094-9.094 0-5.015 4.08-9.094 9.094-9.094h317.049c5.015 0 9.094 4.08 9.094 9.094-.001 5.015-4.08 9.094-9.094 9.094z" fill="#000000" data-original="#000000" style="" class=""/><path d="m209.827 417.166c-4.142 0-7.5 3.358-7.5 7.5s3.358 7.5 7.5 7.5h174.727c4.143 0 7.5-3.358 7.5-7.5s-3.357-7.5-7.5-7.5z" fill="#000000" data-original="#000000" style="" class=""/></g></g></g></g></g></g></svg>
