<?xml version="1.0" encoding="utf-8"?>
<!-- Generator: Adobe Illustrator 24.3.0, SVG Export Plug-In . SVG Version: 6.00 Build 0)  -->
<svg version="1.1" id="Слой_2" xmlns="http://www.w3.org/2000/svg" xmlns:xlink="http://www.w3.org/1999/xlink" x="0px" y="0px"
	 viewBox="0 0 756.3 211.9" style="enable-background:new 0 0 756.3 211.9;" xml:space="preserve">
<style type="text/css">
	.st0{fill:#455BED;}
	.st1{fill:#21252D;}
</style>
<g>
	<path class="st0" d="M110.38,145.98V96.97V83.05v-3.8c-6.48-1.55-14.16-2.96-22.82-3.83v17.26c1.95,0.22,3.82,0.47,5.65,0.74v77.13
		C101.4,163.6,107.04,155.49,110.38,145.98z"/>
	<path class="st0" d="M28.54,96.97v49.01c3.34,9.52,8.99,17.62,17.17,24.57V93.42c1.82-0.27,3.7-0.52,5.65-0.74V75.42
		c-8.66,0.87-16.34,2.28-22.82,3.83v3.8V96.97z"/>
	<path class="st0" d="M138.92,33.03v-20.6c-3.01-1.3-8.89-3.63-17.17-5.92v19.81c-10.79-3.47-25.99-7.16-43.7-8.11V0.09
		C76.27,0.03,74.46,0,72.62,0c-4.06,0-7.98,0.13-11.75,0.36v17.84c-17.71,0.95-32.91,4.64-43.7,8.11V8.4
		C9.13,11,4.51,13.24,4.06,13.47l-4.06,2v17.56v6.31v11.45c0,0,25.44-12.93,60.87-14.83v144.3c2.71,1.46,5.54,2.87,8.59,4.2
		c3.04-1.34,5.88-2.75,8.59-4.21V35.96c35.44,1.9,60.87,14.83,60.87,14.83L138.92,33.03L138.92,33.03z"/>
	<path class="st0" d="M87.56,45.94v17.28c16,1.8,27.98,5.59,34.19,7.93v51.06c0,32.86-15.72,55.01-49.46,69.72l-2.83,1.23
		l-2.83-1.23c-33.74-14.71-49.46-36.87-49.46-69.72V71.13c6.19-2.34,18.11-6.13,34.19-7.92V45.94C23.24,48.77,5.66,57.3,4.78,57.73
		L0,60.1v62.12c0,39.42,20.11,68.17,59.77,85.47l9.69,4.22l9.69-4.22c39.66-17.29,59.77-46.05,59.77-85.47V60.1l-4.78-2.36
		C133.27,57.3,115.68,48.77,87.56,45.94z"/>
</g>
<g>
	<path class="st1" d="M196.19,162.89c-0.35,1.77-0.93,3.17-1.71,4.16h0c-0.78,0.99-1.63,1.67-2.52,2.02
		c-0.92,0.36-1.82,0.55-2.67,0.55c-2.89,0-4.91-0.88-6.17-2.7c-1.29-1.86-1.94-4.44-1.94-7.65c0-2.13,0.36-3.96,1.07-5.44
		c0.7-1.45,1.66-2.56,2.85-3.29c2.44-1.48,5.8-1.44,8.37,0.01c1.26,0.71,2.06,1.97,2.47,3.87l0.1,0.48h4.62l-0.08-0.68
		c-0.19-1.61-0.75-3.13-1.67-4.52c-0.92-1.39-2.23-2.53-3.9-3.37c-1.65-0.83-3.62-1.26-5.86-1.26c-1.96,0-3.77,0.35-5.36,1.04
		c-1.6,0.7-2.98,1.69-4.09,2.97c-1.11,1.27-1.97,2.8-2.56,4.55c-0.58,1.74-0.87,3.67-0.87,5.76c0,2.49,0.34,4.7,1.01,6.55
		c0.67,1.87,1.61,3.42,2.79,4.6c1.17,1.19,2.52,2.07,4,2.62c1.47,0.55,3.03,0.83,4.65,0.83c1.27,0,2.71-0.22,4.28-0.67
		c1.62-0.46,3.23-1.51,4.79-3.12c1.56-1.63,2.59-4.02,3.04-7.1l0.1-0.7h-4.65L196.19,162.89z"/>
	<polygon class="st1" points="235.81,165.61 235.81,145.77 231.15,145.77 231.15,173.29 236.1,173.29 248.59,153.44 248.59,173.29 
		253.25,173.29 253.25,145.77 248.09,145.77 	"/>
	<path class="st1" d="M286.2,165.57c0,1.3-0.22,2.3-0.65,2.96c-0.38,0.58-1.17,0.87-2.37,0.87h-0.61v4.4h0.61
		c1.37,0,2.61-0.21,3.7-0.63c1.15-0.44,2.1-1.29,2.84-2.54c0.71-1.22,1.08-2.92,1.08-5.07v-15.43h9.44v23.15H305v-27.52h-18.8
		V165.57z"/>
	<path class="st1" d="M344.3,145.77l-10.34,27.52h4.98l2.74-7.65h9.68l2.6,7.65h5.19l-9.96-27.52H344.3z M343.21,161.27l3.35-9.22
		l3.09,9.22H343.21z"/>
	<path class="st1" d="M451.21,158.45c1.85-1.24,2.79-3.06,2.79-5.44c0-1.33-0.31-2.55-0.93-3.64c-0.63-1.1-1.56-1.99-2.77-2.63
		c-1.2-0.64-2.66-0.96-4.33-0.96h-12.18v27.52h11.93c1.95,0,3.67-0.37,5.1-1.11c1.46-0.75,2.58-1.77,3.32-3.04
		c0.74-1.27,1.12-2.69,1.12-4.22c0-2.12-0.52-3.7-1.53-4.69C453.01,159.55,452.17,158.96,451.21,158.45z M438.54,150.03h5.84
		c1.77,0,3.05,0.28,3.8,0.85c0.7,0.53,1.05,1.31,1.05,2.39c0,1.34-0.37,2.25-1.14,2.78c-0.82,0.57-2.09,0.86-3.75,0.86h-5.79V150.03
		z M449.25,167.91L449.25,167.91c-0.83,0.75-2.09,1.12-3.74,1.12h-6.96v-8.01h6.38c4.97,0,5.54,2.18,5.54,3.82
		C450.46,166.17,450.07,167.17,449.25,167.91z"/>
	<polygon class="st1" points="531.01,173.29 535.78,173.29 535.78,150.14 548.3,150.14 548.3,173.29 553.07,173.29 553.07,145.77 
		531.01,145.77 	"/>
	<path class="st1" d="M601.97,146.83c-1.27-0.68-2.76-1.02-4.43-1.02H584.7v27.52h4.77v-11.1h8.06c2.81,0,4.95-0.86,6.35-2.55
		c1.37-1.65,2.07-3.63,2.07-5.86c0-1.51-0.34-2.89-1.02-4.11C604.25,148.49,603.26,147.52,601.97,146.83z M596.33,157.97h-6.86v-7.9
		h7.01c3.13,0,4.58,1.2,4.58,3.79C601.07,156.66,599.56,157.97,596.33,157.97z"/>
	<path class="st1" d="M640.08,145.77l-10.34,27.52h4.98l2.74-7.65h9.68l2.6,7.65h5.19l-9.96-27.52H640.08z M639,161.27l3.35-9.22
		l3.09,9.22H639z"/>
	<path class="st1" d="M701.43,158.45c1.85-1.24,2.79-3.06,2.79-5.44c0-1.33-0.31-2.55-0.93-3.64c-0.63-1.1-1.56-1.99-2.77-2.63
		c-1.2-0.64-2.66-0.96-4.33-0.96h-12.18v27.52h11.93c1.95,0,3.67-0.37,5.1-1.11c1.46-0.75,2.58-1.77,3.32-3.04
		c0.74-1.27,1.12-2.69,1.12-4.22c0-2.12-0.51-3.7-1.53-4.69C703.24,159.55,702.4,158.96,701.43,158.45z M688.77,150.03h5.84
		c1.77,0,3.05,0.28,3.8,0.85c0.7,0.53,1.05,1.31,1.05,2.39c0,1.34-0.37,2.25-1.14,2.78c-0.82,0.57-2.09,0.86-3.75,0.86h-5.79V150.03
		z M699.47,167.91L699.47,167.91c-0.83,0.75-2.09,1.12-3.74,1.12h-6.96v-8.01h6.38c4.97,0,5.54,2.18,5.54,3.82
		C700.69,166.17,700.29,167.17,699.47,167.91z"/>
	<polygon class="st1" points="740.44,168.92 740.44,161.35 754.83,161.35 754.83,156.98 740.44,156.98 740.44,150.14 756.05,150.14 
		756.05,145.77 735.67,145.77 735.67,173.29 756.3,173.29 756.3,168.92 	"/>
	<path class="st1" d="M177.29,41.66h5.66c2.35,0,3.82,0.41,4.41,1.23c0.59,0.82,0.88,2.65,0.88,5.5v57.05c0,2.78-0.13,4.4-0.37,4.86
		c-0.25,0.46-0.65,0.97-1.2,1.52c-0.55,0.55-1.52,0.83-2.91,0.83h-6.46v4.01h33.76v-4.01h-6.2c-1.46,0-2.6-0.26-3.42-0.77
		c-0.82-0.52-1.33-1.03-1.52-1.55c-0.2-0.52-0.29-2-0.29-4.46V42.14h36.22v63.3c0,2.88-0.32,4.81-0.96,5.77
		c-0.64,0.96-2.1,1.44-4.38,1.44h-5.77v4.01h33.44v-4.01h-5.23c-1.39,0-2.57-0.22-3.55-0.67c-0.98-0.44-1.58-0.99-1.82-1.63
		c-0.23-0.64-0.35-2.14-0.35-4.49V49.04c0-3.28,0.35-5.32,1.04-6.14c0.69-0.82,2.04-1.23,4.03-1.23h5.88v-4.01h-80.87V41.66z"/>
	<path class="st1" d="M310.5,68.85c-3.11-2.1-6.37-3.15-9.79-3.15c-3.2,0-6.15,0.82-8.85,2.46c-2.7,1.64-5.28,4.42-7.73,8.33
		c-0.14-3.45-0.61-7.05-1.39-10.79l-16.18,0.91v3.58c3.53,0.11,5.88,0.67,7.05,1.68c1.18,1.02,1.76,2.75,1.76,5.21v52.67
		c0,1.1-0.43,1.99-1.28,2.67c-0.85,0.68-2.14,1.02-3.85,1.02h-3.69v3.79h26.76v-3.79h-3.69c-1.71,0-3.04-0.43-4.01-1.28
		c-0.75-0.64-1.12-1.75-1.12-3.31v-20.25c1.95,3.17,4.19,5.56,6.71,7.16c2.52,1.6,5.34,2.4,8.47,2.4c5.5,0,10.23-2.14,14.17-6.41
		c4.76-5.13,7.14-11.77,7.14-19.92c0-5.09-0.97-9.67-2.91-13.73C316.14,74.03,313.61,70.95,310.5,68.85z M306.89,109.02
		c-2.03,2.92-4.92,4.38-8.69,4.38c-4.02,0-7.32-1.71-9.92-5.13c-2.59-3.42-3.89-8.71-3.89-15.86c0-7.09,1.34-12.5,4.02-16.24
		c2.68-3.74,5.96-5.61,9.84-5.61c3.66,0,6.66,1.66,9.01,4.97c2.34,3.31,3.52,8.85,3.52,16.61
		C310.78,99.55,309.48,105.18,306.89,109.02z"/>
	<path class="st1" d="M378.19,112.87c-1.25,0-2.26-0.59-3.04-1.76c-0.78-1.14-1.18-2.92-1.18-5.34V78.41c0-3.7-1.57-6.85-4.7-9.46
		c-3.13-2.56-7.67-3.85-13.62-3.85c-6.45,0-11.65,1.46-15.62,4.38c-3.97,2.92-5.96,6.14-5.96,9.67c0,1.89,0.6,3.44,1.79,4.65
		c1.19,1.21,2.68,1.82,4.46,1.82c1.67,0,3.03-0.51,4.06-1.52c1.03-1.02,1.55-2.32,1.55-3.93c0-1.1-0.52-2.37-1.55-3.79
		c-0.85-1.14-1.28-1.98-1.28-2.51c0-0.93,0.8-1.87,2.4-2.83c2.24-1.28,4.91-1.92,8.01-1.92c3.35,0,6.11,0.96,8.28,2.88
		c2.17,1.92,3.26,4.24,3.26,6.94v7.59c-10.15,1.14-18.28,3.43-24.38,6.86c-6.11,3.44-9.16,7.75-9.16,12.95
		c0,3.46,1.34,6.29,4.01,8.49c2.67,2.21,6.57,3.31,11.7,3.31c3.6,0,6.68-0.6,9.24-1.79c2.56-1.19,5.54-3.57,8.92-7.13
		c1.25,3.31,2.7,5.63,4.35,6.94c1.66,1.32,3.69,1.98,6.12,1.98c3.17,0,6.05-1.34,8.65-4.01l-1.92-2.99
		C381.04,112.3,379.58,112.87,378.19,112.87z M365.05,97.22c0,4.81-1.54,8.8-4.62,11.99c-3.08,3.19-6.72,4.78-10.92,4.78
		c-2.35,0-4.26-0.77-5.72-2.32c-1.46-1.55-2.19-3.69-2.19-6.44c0-3.92,1.41-6.94,4.22-9.08c3.77-2.81,10.18-4.84,19.23-6.09V97.22z"
		/>
	<path class="st1" d="M440.69,103.79c0-7.12-5.34-11.43-16.02-12.93c3.56-0.18,6.77-1.3,9.64-3.36c2.87-2.06,4.3-4.9,4.3-8.49
		c0-2.88-0.88-5.34-2.64-7.37c-1.76-2.03-3.92-3.37-6.46-4.03c-2.55-0.66-6.4-0.99-11.57-0.99h-28.15v4.01h5.72
		c2.56,0,3.85,1.14,3.85,3.42v34.03c0,3.06-1.52,4.59-4.57,4.59h-5.32v4.01h30.32C433.72,116.66,440.69,112.37,440.69,103.79z
		 M408.37,75.21c0-2.99,1.81-4.49,5.43-4.49h3.14c7.88,0,11.83,3.12,11.83,9.35c0,6.02-4.35,9.03-13.05,9.03h-7.35V75.21z
		 M427.98,110.18c-1.6,1.72-5.19,2.58-10.76,2.58h-4.32c-1.67,0-2.84-0.35-3.52-1.06c-0.67-0.71-1.01-1.88-1.01-3.52V93.1h9.06
		c8.63,0,12.95,3.46,12.95,10.39C430.38,106.23,429.58,108.45,427.98,110.18z"/>
	<path class="st1" d="M472.9,65.11c-6.62,0-12.2,2.46-16.72,7.37c-4.52,4.91-6.78,11.31-6.78,19.18c0,7.83,2.25,14.21,6.76,19.12
		c4.5,4.91,10,7.37,16.48,7.37c4.38,0,8.47-1.12,12.26-3.37c3.79-2.24,6.71-5.3,8.76-9.16c2.05-3.86,3.07-8.54,3.07-14.02
		c0-7.94-2.29-14.34-6.86-19.2C485.28,67.54,479.63,65.11,472.9,65.11z M483.02,108.86c-2.58,3.67-5.96,5.5-10.12,5.5
		c-4.02,0-7.31-1.83-9.85-5.5c-2.55-3.67-3.82-9.47-3.82-17.41c0-7.8,1.28-13.51,3.85-17.12c2.56-3.61,5.84-5.42,9.83-5.42
		c4.24,0,7.63,1.73,10.18,5.18c2.55,3.46,3.82,9.05,3.82,16.77C486.89,99.19,485.6,105.19,483.02,108.86z"/>
	<path class="st1" d="M554.15,103.79c0-7.12-5.34-11.43-16.02-12.93c3.56-0.18,6.77-1.3,9.64-3.36c2.87-2.06,4.3-4.9,4.3-8.49
		c0-2.88-0.88-5.34-2.65-7.37c-1.76-2.03-3.92-3.37-6.46-4.03c-2.55-0.66-6.4-0.99-11.56-0.99h-28.15v4.01h5.72
		c2.56,0,3.85,1.14,3.85,3.42v34.03c0,3.06-1.52,4.59-4.57,4.59h-5.32v4.01h30.32C547.18,116.66,554.15,112.37,554.15,103.79z
		 M521.83,75.21c0-2.99,1.81-4.49,5.43-4.49h3.14c7.88,0,11.83,3.12,11.83,9.35c0,6.02-4.35,9.03-13.05,9.03h-7.35V75.21z
		 M526.36,112.76c-1.67,0-2.84-0.35-3.52-1.06c-0.67-0.71-1.01-1.88-1.01-3.52V93.1h9.06c8.63,0,12.95,3.46,12.95,10.39
		c0,2.73-0.8,4.96-2.4,6.69c-1.6,1.72-5.19,2.58-10.76,2.58H526.36z"/>
	<path class="st1" d="M589.83,113.4c-4.74,0-8.64-1.76-11.7-5.29c-2.67-3.13-4.1-8.51-4.27-16.13h35.84
		c-0.07-4.99-0.73-9.12-1.98-12.39c-1.78-4.67-4.43-8.24-7.96-10.74c-3.53-2.49-7.71-3.74-12.55-3.74c-6.59,0-12.14,2.5-16.64,7.51
		c-4.5,5-6.76,11.56-6.76,19.68c0,7.55,2.29,13.75,6.86,18.59c4.58,4.84,10.21,7.26,16.91,7.26c9.83,0,17.34-5.06,22.54-15.17
		l-3.47-1.5C602.42,109.43,596.81,113.4,589.83,113.4z M577.89,73.29c2.58-3.31,5.72-4.97,9.43-4.97c3.31,0,6.19,1.37,8.63,4.11
		c2.44,2.74,3.66,6.07,3.66,9.99c0,2.1-0.36,3.59-1.07,4.46c-0.71,0.87-1.71,1.31-2.99,1.31h-21.69
		C573.96,81.57,575.31,76.6,577.89,73.29z"/>
	<path class="st1" d="M623.91,70.62h1.44c1.21,0,2.59,0.56,4.14,1.68c1.55,1.12,2.32,4.05,2.32,8.79c0,12.64-1.69,21.04-5.07,25.19
		c-3.38,4.15-7.16,6.22-11.32,6.22l-0.91-0.05v18.64h4.01c0.04-5.63,0.94-9.44,2.72-11.43c1.78-1.99,4.7-2.99,8.76-2.99h26.66
		c4.77,0,8.04,0.95,9.8,2.86c1.76,1.9,2.64,5.96,2.64,12.15h4.01v-19.02h-5.13c-2.67,0-4.01-1.19-4.01-3.58V75.05
		c0-2.95,1.53-4.43,4.59-4.43h5.18v-4.01h-49.84V70.62z M635.98,80.98c0.18-4.02,0.93-6.76,2.26-8.2c1.33-1.44,4.04-2.16,8.12-2.16
		h4.69c2.59,0,3.89,1.12,3.89,3.36v38.67h-31.04c3.42-1.71,6.16-4.7,8.23-8.97C634.2,99.41,635.48,91.84,635.98,80.98z"/>
	<path class="st1" d="M756.3,94.6c0-6.62-2.44-12.03-7.31-16.21c-4.87-4.18-11.88-6.28-21.02-6.28h-16.01V46.95
		c0-3.53,1.69-5.29,5.08-5.29h9.03v-4.01h-53.26l-1.19,14.14h4.66c2.97-11.16,9.02-10.5,18.16-10.5c2.64,0,4.32,0.44,5.05,1.31
		c0.73,0.87,1.1,2.72,1.1,5.53v58.81c0,2.21-0.4,3.71-1.2,4.51c-0.8,0.8-2.61,1.2-5.42,1.2h-5.82v4.01H729
		c8.55,0,15.23-1.97,20.06-5.9C753.88,106.82,756.3,101.44,756.3,94.6z M742.54,104.8c-1.05,2.81-2.92,4.88-5.6,6.2
		c-2.68,1.32-7.24,1.98-13.68,1.98h-5.44c-2.42,0-4-0.47-4.75-1.41c-0.75-0.94-1.12-2.54-1.12-4.78V76.12h12.91
		c7.82,0,12.98,1.77,15.49,5.32c2.51,3.54,3.76,8.27,3.76,14.18C744.12,98.93,743.59,101.99,742.54,104.8z"/>
</g>
</svg>
