<?xml version="1.0" encoding="utf-8"?>
<!-- Generator: Adobe Illustrator 21.0.2, SVG Export Plug-In . SVG Version: 6.00 Build 0)  -->
<svg version="1.1" id="Слой_2" xmlns="http://www.w3.org/2000/svg" xmlns:xlink="http://www.w3.org/1999/xlink" x="0px" y="0px"
	 viewBox="0 0 756.3 211.9" style="enable-background:new 0 0 756.3 211.9;" xml:space="preserve">
<style type="text/css">
	.st0{fill:#455BED;}
	.st1{fill:#F8FBFF;}
</style>
<g>
	<path class="st0" d="M110.4,146V97V83.1v-3.8c-6.5-1.6-14.2-3-22.8-3.8v17.3c1.9,0.2,3.8,0.5,5.7,0.7v77.1
		C101.4,163.6,107,155.5,110.4,146z"/>
	<path class="st0" d="M28.5,97v49c3.3,9.5,9,17.6,17.2,24.6V93.4c1.8-0.3,3.7-0.5,5.7-0.7V75.4c-8.7,0.9-16.3,2.3-22.8,3.8v3.8V97z"
		/>
	<path class="st0" d="M138.9,33V12.4c-3-1.3-8.9-3.6-17.2-5.9v19.8c-10.8-3.5-26-7.2-43.7-8.1V0.1C76.3,0,74.5,0,72.6,0
		c-4.1,0-8,0.1-11.8,0.4v17.8c-17.7,1-32.9,4.6-43.7,8.1V8.4c-8,2.6-12.7,4.8-13.1,5.1l-4.1,2V33v6.3v11.5c0,0,25.4-12.9,60.9-14.8
		v144.3c2.7,1.5,5.5,2.9,8.6,4.2c3-1.3,5.9-2.8,8.6-4.2V36c35.4,1.9,60.9,14.8,60.9,14.8V33L138.9,33z"/>
	<path class="st0" d="M87.6,45.9v17.3c16,1.8,28,5.6,34.2,7.9v51.1c0,32.9-15.7,55-49.5,69.7l-2.8,1.2l-2.8-1.2
		c-33.7-14.7-49.5-36.9-49.5-69.7V71.1c6.2-2.3,18.1-6.1,34.2-7.9V45.9C23.2,48.8,5.7,57.3,4.8,57.7L0,60.1v62.1
		c0,39.4,20.1,68.2,59.8,85.5l9.7,4.2l9.7-4.2c39.7-17.3,59.8-46.1,59.8-85.5V60.1l-4.8-2.4C133.3,57.3,115.7,48.8,87.6,45.9z"/>
</g>
<g>
	<path class="st1" d="M196.2,162.9c-0.4,1.8-0.9,3.2-1.7,4.2l0,0c-0.8,1-1.6,1.7-2.5,2c-0.9,0.4-1.8,0.6-2.7,0.6
		c-2.9,0-4.9-0.9-6.2-2.7c-1.3-1.9-1.9-4.4-1.9-7.6c0-2.1,0.4-4,1.1-5.4c0.7-1.4,1.7-2.6,2.9-3.3c2.4-1.5,5.8-1.4,8.4,0
		c1.3,0.7,2.1,2,2.5,3.9l0.1,0.5h4.6l-0.1-0.7c-0.2-1.6-0.8-3.1-1.7-4.5s-2.2-2.5-3.9-3.4c-1.6-0.8-3.6-1.3-5.9-1.3
		c-2,0-3.8,0.4-5.4,1c-1.6,0.7-3,1.7-4.1,3c-1.1,1.3-2,2.8-2.6,4.6c-0.6,1.7-0.9,3.7-0.9,5.8c0,2.5,0.3,4.7,1,6.6
		c0.7,1.9,1.6,3.4,2.8,4.6c1.2,1.2,2.5,2.1,4,2.6c1.5,0.6,3,0.8,4.6,0.8c1.3,0,2.7-0.2,4.3-0.7c1.6-0.5,3.2-1.5,4.8-3.1
		c1.6-1.6,2.6-4,3-7.1l0.1-0.7h-4.6L196.2,162.9z"/>
	<polygon class="st1" points="235.8,165.6 235.8,145.8 231.1,145.8 231.1,173.3 236.1,173.3 248.6,153.4 248.6,173.3 253.3,173.3 
		253.3,145.8 248.1,145.8 	"/>
	<path class="st1" d="M286.2,165.6c0,1.3-0.2,2.3-0.6,3c-0.4,0.6-1.2,0.9-2.4,0.9h-0.6v4.4h0.6c1.4,0,2.6-0.2,3.7-0.6
		c1.1-0.4,2.1-1.3,2.8-2.5c0.7-1.2,1.1-2.9,1.1-5.1v-15.4h9.4v23.1h4.8v-27.5h-18.8V165.6z"/>
	<path class="st1" d="M344.3,145.8L334,173.3h5l2.7-7.6h9.7l2.6,7.6h5.2l-10-27.5H344.3z M343.2,161.3l3.4-9.2l3.1,9.2H343.2z"/>
	<path class="st1" d="M451.2,158.4c1.9-1.2,2.8-3.1,2.8-5.4c0-1.3-0.3-2.6-0.9-3.6c-0.6-1.1-1.6-2-2.8-2.6c-1.2-0.6-2.7-1-4.3-1
		h-12.2v27.5h11.9c2,0,3.7-0.4,5.1-1.1c1.5-0.8,2.6-1.8,3.3-3c0.7-1.3,1.1-2.7,1.1-4.2c0-2.1-0.5-3.7-1.5-4.7
		C453,159.6,452.2,159,451.2,158.4z M438.5,150h5.8c1.8,0,3,0.3,3.8,0.9c0.7,0.5,1,1.3,1,2.4c0,1.3-0.4,2.3-1.1,2.8
		c-0.8,0.6-2.1,0.9-3.8,0.9h-5.8L438.5,150L438.5,150z M449.3,167.9L449.3,167.9c-0.8,0.8-2.1,1.1-3.7,1.1h-7v-8h6.4
		c5,0,5.5,2.2,5.5,3.8C450.5,166.2,450.1,167.2,449.3,167.9z"/>
	<polygon class="st1" points="531,173.3 535.8,173.3 535.8,150.1 548.3,150.1 548.3,173.3 553.1,173.3 553.1,145.8 531,145.8 	"/>
	<path class="st1" d="M602,146.8c-1.3-0.7-2.8-1-4.4-1h-12.8v27.5h4.8v-11.1h8.1c2.8,0,5-0.9,6.3-2.6c1.4-1.6,2.1-3.6,2.1-5.9
		c0-1.5-0.3-2.9-1-4.1C604.3,148.5,603.3,147.5,602,146.8z M596.3,158h-6.9v-7.9h7c3.1,0,4.6,1.2,4.6,3.8
		C601.1,156.7,599.6,158,596.3,158z"/>
	<path class="st1" d="M640.1,145.8l-10.3,27.5h5l2.7-7.6h9.7l2.6,7.6h5.2l-10-27.5H640.1z M639,161.3l3.3-9.2l3.1,9.2H639z"/>
	<path class="st1" d="M701.4,158.4c1.8-1.2,2.8-3.1,2.8-5.4c0-1.3-0.3-2.6-0.9-3.6c-0.6-1.1-1.6-2-2.8-2.6c-1.2-0.6-2.7-1-4.3-1H684
		v27.5h11.9c2,0,3.7-0.4,5.1-1.1c1.5-0.8,2.6-1.8,3.3-3c0.7-1.3,1.1-2.7,1.1-4.2c0-2.1-0.5-3.7-1.5-4.7
		C703.2,159.6,702.4,159,701.4,158.4z M688.8,150h5.8c1.8,0,3,0.3,3.8,0.9c0.7,0.5,1,1.3,1,2.4c0,1.3-0.4,2.3-1.1,2.8
		c-0.8,0.6-2.1,0.9-3.8,0.9h-5.8L688.8,150L688.8,150z M699.5,167.9L699.5,167.9c-0.8,0.8-2.1,1.1-3.7,1.1h-7v-8h6.4
		c5,0,5.5,2.2,5.5,3.8C700.7,166.2,700.3,167.2,699.5,167.9z"/>
	<polygon class="st1" points="740.4,168.9 740.4,161.4 754.8,161.4 754.8,157 740.4,157 740.4,150.1 756,150.1 756,145.8 
		735.7,145.8 735.7,173.3 756.3,173.3 756.3,168.9 	"/>
	<path class="st1" d="M177.3,41.7h5.7c2.4,0,3.8,0.4,4.4,1.2s0.9,2.7,0.9,5.5v57.1c0,2.8-0.1,4.4-0.4,4.9c-0.3,0.5-0.6,1-1.2,1.5
		c-0.6,0.6-1.5,0.8-2.9,0.8h-6.5v4h33.8v-4h-6.2c-1.5,0-2.6-0.3-3.4-0.8c-0.8-0.5-1.3-1-1.5-1.6c-0.2-0.5-0.3-2-0.3-4.5V42.1h36.2
		v63.3c0,2.9-0.3,4.8-1,5.8s-2.1,1.4-4.4,1.4h-5.8v4h33.4v-4h-5.2c-1.4,0-2.6-0.2-3.6-0.7c-1-0.4-1.6-1-1.8-1.6
		c-0.2-0.6-0.4-2.1-0.4-4.5V49c0-3.3,0.4-5.3,1-6.1c0.7-0.8,2-1.2,4-1.2h5.9v-4h-80.9L177.3,41.7L177.3,41.7z"/>
	<path class="st1" d="M310.5,68.8c-3.1-2.1-6.4-3.2-9.8-3.2c-3.2,0-6.1,0.8-8.9,2.5s-5.3,4.4-7.7,8.3c-0.1-3.4-0.6-7.1-1.4-10.8
		l-16.2,0.9v3.6c3.5,0.1,5.9,0.7,7,1.7c1.2,1,1.8,2.8,1.8,5.2v52.7c0,1.1-0.4,2-1.3,2.7s-2.1,1-3.9,1h-3.7v3.8h26.8v-3.8h-3.7
		c-1.7,0-3-0.4-4-1.3c-0.8-0.6-1.1-1.8-1.1-3.3v-20.3c2,3.2,4.2,5.6,6.7,7.2c2.5,1.6,5.3,2.4,8.5,2.4c5.5,0,10.2-2.1,14.2-6.4
		c4.8-5.1,7.1-11.8,7.1-19.9c0-5.1-1-9.7-2.9-13.7C316.1,74,313.6,70.9,310.5,68.8z M306.9,109c-2,2.9-4.9,4.4-8.7,4.4
		c-4,0-7.3-1.7-9.9-5.1c-2.6-3.4-3.9-8.7-3.9-15.9c0-7.1,1.3-12.5,4-16.2s6-5.6,9.8-5.6c3.7,0,6.7,1.7,9,5c2.3,3.3,3.5,8.8,3.5,16.6
		C310.8,99.6,309.5,105.2,306.9,109z"/>
	<path class="st1" d="M378.2,112.9c-1.3,0-2.3-0.6-3-1.8c-0.8-1.1-1.2-2.9-1.2-5.3V78.4c0-3.7-1.6-6.8-4.7-9.5
		c-3.1-2.6-7.7-3.8-13.6-3.8c-6.5,0-11.6,1.5-15.6,4.4s-6,6.1-6,9.7c0,1.9,0.6,3.4,1.8,4.7s2.7,1.8,4.5,1.8c1.7,0,3-0.5,4.1-1.5
		c1-1,1.5-2.3,1.5-3.9c0-1.1-0.5-2.4-1.5-3.8c-0.9-1.1-1.3-2-1.3-2.5c0-0.9,0.8-1.9,2.4-2.8c2.2-1.3,4.9-1.9,8-1.9
		c3.4,0,6.1,1,8.3,2.9s3.3,4.2,3.3,6.9v7.6c-10.1,1.1-18.3,3.4-24.4,6.9c-6.1,3.4-9.2,7.8-9.2,12.9c0,3.5,1.3,6.3,4,8.5
		c2.7,2.2,6.6,3.3,11.7,3.3c3.6,0,6.7-0.6,9.2-1.8s5.5-3.6,8.9-7.1c1.3,3.3,2.7,5.6,4.4,6.9c1.7,1.3,3.7,2,6.1,2c3.2,0,6-1.3,8.6-4
		l-1.9-3C381,112.3,379.6,112.9,378.2,112.9z M365,97.2c0,4.8-1.5,8.8-4.6,12c-3.1,3.2-6.7,4.8-10.9,4.8c-2.4,0-4.3-0.8-5.7-2.3
		s-2.2-3.7-2.2-6.4c0-3.9,1.4-6.9,4.2-9.1c3.8-2.8,10.2-4.8,19.2-6.1V97.2z"/>
	<path class="st1" d="M440.7,103.8c0-7.1-5.3-11.4-16-12.9c3.6-0.2,6.8-1.3,9.6-3.4c2.9-2.1,4.3-4.9,4.3-8.5c0-2.9-0.9-5.3-2.6-7.4
		s-3.9-3.4-6.5-4c-2.5-0.7-6.4-1-11.6-1h-28.1v4h5.7c2.6,0,3.9,1.1,3.9,3.4v34c0,3.1-1.5,4.6-4.6,4.6h-5.3v4h30.3
		C433.7,116.7,440.7,112.4,440.7,103.8z M408.4,75.2c0-3,1.8-4.5,5.4-4.5h3.1c7.9,0,11.8,3.1,11.8,9.3c0,6-4.4,9-13,9h-7.4V75.2z
		 M428,110.2c-1.6,1.7-5.2,2.6-10.8,2.6h-4.3c-1.7,0-2.8-0.3-3.5-1.1c-0.7-0.7-1-1.9-1-3.5V93.1h9.1c8.6,0,13,3.5,13,10.4
		C430.4,106.2,429.6,108.4,428,110.2z"/>
	<path class="st1" d="M472.9,65.1c-6.6,0-12.2,2.5-16.7,7.4c-4.5,4.9-6.8,11.3-6.8,19.2c0,7.8,2.3,14.2,6.8,19.1
		c4.5,4.9,10,7.4,16.5,7.4c4.4,0,8.5-1.1,12.3-3.4c3.8-2.2,6.7-5.3,8.8-9.2c2-3.9,3.1-8.5,3.1-14c0-7.9-2.3-14.3-6.9-19.2
		C485.3,67.5,479.6,65.1,472.9,65.1z M483,108.9c-2.6,3.7-6,5.5-10.1,5.5c-4,0-7.3-1.8-9.9-5.5c-2.5-3.7-3.8-9.5-3.8-17.4
		c0-7.8,1.3-13.5,3.9-17.1c2.6-3.6,5.8-5.4,9.8-5.4c4.2,0,7.6,1.7,10.2,5.2c2.5,3.5,3.8,9.1,3.8,16.8
		C486.9,99.2,485.6,105.2,483,108.9z"/>
	<path class="st1" d="M554.2,103.8c0-7.1-5.3-11.4-16-12.9c3.6-0.2,6.8-1.3,9.6-3.4s4.3-4.9,4.3-8.5c0-2.9-0.9-5.3-2.7-7.4
		c-1.8-2-3.9-3.4-6.5-4c-2.5-0.7-6.4-1-11.6-1h-28.1v4h5.7c2.6,0,3.8,1.1,3.8,3.4v34c0,3.1-1.5,4.6-4.6,4.6h-5.3v4h30.3
		C547.2,116.7,554.2,112.4,554.2,103.8z M521.8,75.2c0-3,1.8-4.5,5.4-4.5h3.1c7.9,0,11.8,3.1,11.8,9.3c0,6-4.3,9-13,9h-7.3
		L521.8,75.2L521.8,75.2z M526.4,112.8c-1.7,0-2.8-0.3-3.5-1.1c-0.7-0.7-1-1.9-1-3.5V93.1h9.1c8.6,0,13,3.5,13,10.4
		c0,2.7-0.8,5-2.4,6.7c-1.6,1.7-5.2,2.6-10.8,2.6H526.4z"/>
	<path class="st1" d="M589.8,113.4c-4.7,0-8.6-1.8-11.7-5.3c-2.7-3.1-4.1-8.5-4.3-16.1h35.8c-0.1-5-0.7-9.1-2-12.4
		c-1.8-4.7-4.4-8.2-8-10.7c-3.5-2.5-7.7-3.7-12.5-3.7c-6.6,0-12.1,2.5-16.6,7.5c-4.5,5-6.8,11.6-6.8,19.7c0,7.6,2.3,13.8,6.9,18.6
		c4.6,4.8,10.2,7.3,16.9,7.3c9.8,0,17.3-5.1,22.5-15.2l-3.5-1.5C602.4,109.4,596.8,113.4,589.8,113.4z M577.9,73.3
		c2.6-3.3,5.7-5,9.4-5c3.3,0,6.2,1.4,8.6,4.1s3.7,6.1,3.7,10c0,2.1-0.4,3.6-1.1,4.5s-1.7,1.3-3,1.3h-21.7
		C574,81.6,575.3,76.6,577.9,73.3z"/>
	<path class="st1" d="M623.9,70.6h1.4c1.2,0,2.6,0.6,4.1,1.7s2.3,4.1,2.3,8.8c0,12.6-1.7,21-5.1,25.2s-7.2,6.2-11.3,6.2l-0.9-0.1
		v18.6h4c0-5.6,0.9-9.4,2.7-11.4c1.8-2,4.7-3,8.8-3h26.7c4.8,0,8,0.9,9.8,2.9c1.8,1.9,2.6,6,2.6,12.1h4v-19H668c-2.7,0-4-1.2-4-3.6
		v-34c0-2.9,1.5-4.4,4.6-4.4h5.2v-4h-49.8L623.9,70.6L623.9,70.6z M636,81c0.2-4,0.9-6.8,2.3-8.2c1.3-1.4,4-2.2,8.1-2.2h4.7
		c2.6,0,3.9,1.1,3.9,3.4v38.7h-31c3.4-1.7,6.2-4.7,8.2-9C634.2,99.4,635.5,91.8,636,81z"/>
	<path class="st1" d="M756.3,94.6c0-6.6-2.4-12-7.3-16.2s-11.9-6.3-21-6.3h-16V47c0-3.5,1.7-5.3,5.1-5.3h9v-4h-53.3l-1.2,14.1h4.7
		c3-11.2,9-10.5,18.2-10.5c2.6,0,4.3,0.4,5,1.3c0.7,0.9,1.1,2.7,1.1,5.5v58.8c0,2.2-0.4,3.7-1.2,4.5s-2.6,1.2-5.4,1.2h-5.8v4H729
		c8.5,0,15.2-2,20.1-5.9C753.9,106.8,756.3,101.4,756.3,94.6z M742.5,104.8c-1,2.8-2.9,4.9-5.6,6.2s-7.2,2-13.7,2h-5.4
		c-2.4,0-4-0.5-4.8-1.4s-1.1-2.5-1.1-4.8V76.1h12.9c7.8,0,13,1.8,15.5,5.3c2.5,3.5,3.8,8.3,3.8,14.2
		C744.1,98.9,743.6,102,742.5,104.8z"/>
</g>
</svg>
