<svg id="Слой_1" data-name="Слой 1" xmlns="http://www.w3.org/2000/svg" viewBox="0 0 1000 1000"><defs><style>.cls-1{fill:#e4c492;}</style></defs><path class="cls-1" d="M580.65,314l7,5.46a422,422,0,0,0,44.21,29.5V385c-49-22.71-92.39-57.88-122.82-86.46a518.65,518.65,0,0,0,36.73-39.52l2.49-3.05L500,156.74,451.72,256l2.49,3.05a518.65,518.65,0,0,0,36.73,39.52C460.51,327.15,417.1,362.32,368.12,385V348.94a422,422,0,0,0,44.21-29.5l7-5.46L355.77,274.7V403.89l8.6-3.67c54.89-23.46,102.82-62,135.62-93,32.79,30.92,80.72,69.5,135.61,93l8.6,3.67V274.7ZM368.12,296.85l29.44,18.2c-6.6,4.78-17.21,12.17-29.44,19.56ZM500,289.91c-17-16.6-28.8-30-33.69-35.66L500,185l33.67,69.28C528.78,260,517,273.31,500,289.91ZM631.85,334.6c-12.22-7.38-22.83-14.76-29.44-19.55l29.44-18.2Z"/><path class="cls-1" d="M644.23,417.7c-37.1-14.55-113-64.33-141.58-97.73L500,316.75l-3.31,4c-29,33.4-104.1,82.54-140.92,97C351.41,464,358,496.57,380.52,534.13c13.14,21.8,35.91,43.91,58.07,62.34-4.36-6.41-4.64-8.73-4.94-14-.28-4.82,1.81-11.73,8.6-23.55,2.73-4.75,6.36-10.11,10.41-16.75,14.27-23.39,22.89-31.29,29.47-37.48s18.18-18.29,28.36-27.93C521,466.84,531,451.71,536.59,440c-6.07,10-14.94,20.1-23.78,29s-29.18,26.39-41.21,39.13A215.28,215.28,0,0,0,449,537.34c-7.23,11.26-13.07,23.17-15.33,31.46-7.36-12.76-7.23-33.62-3.89-52.4s12.73-39.65,18.78-46.53a100.08,100.08,0,0,0-2.3,24.62c1.67-10.23,12.94-27.13,22.54-35.68s33.8-24.21,46.53-33.39S537.43,401,537.43,401l.62,11.89s13.46-21.8,20.14-32.24c13.15,46.74-2.61,68.55-11.79,88.79-5.38,11.86-19.89,28.74-31.19,40.32a194.06,194.06,0,0,1-14.51,13.51,66.49,66.49,0,0,0,11-5.53c-3.23,6.67-13.5,18.06-22.85,26.71a181.82,181.82,0,0,1-17.32,14.09,135.47,135.47,0,0,0,14.5-3.92c-14.39,16.7-32,18.48-39.47,20.15-7.51,2.51-5.08,12.35-4.24,16.11.47,2.12,3,8,5.16,12.77a624.65,624.65,0,0,0,51.21,36.67h0l1.33.85v0l0,0,1.59-1h0c12-7.65,88.67-57.63,117.86-106C642,496.57,648.59,464,644.23,417.7Z"/><path class="cls-1" d="M156.5,770.16a28.65,28.65,0,0,1-1.85-11V713.3q0-13.81,5.22-17.18v-.23H88.15v.23q5.1,3.38,5.11,17.18v45.84a28.45,28.45,0,0,1-1.86,11q-1.86,4.41-4.41,6.15v.23h28.43v-.23a13.62,13.62,0,0,1-4.41-6.09,28.41,28.41,0,0,1-1.85-11.08V707.5h29.59v51.64a27.66,27.66,0,0,1-1.92,11q-1.91,4.41-4.46,6.15v.23H160.8v-.23Q158.35,774.57,156.5,770.16Z"/><path class="cls-1" d="M221.84,695.89H190.16v.23q2.55,1.64,4.41,6a27.33,27.33,0,0,1,1.86,10.73v46.31a28.45,28.45,0,0,1-1.86,11q-1.86,4.41-4.41,6.15v.23h28.43v-.23q-2.55-1.62-4.41-6a27.38,27.38,0,0,1-1.86-10.74V750h9.52q14.16,0,21.7-7t7.54-20.89q0-12.54-7.65-19.38T221.84,695.89Zm9,38.7q-3.77,4-11.66,3.89l-6.85-.12v-31h6.85q7.89,0,11.66,3.77t3.78,11.78Q234.61,730.6,230.83,734.59Z"/><path class="cls-1" d="M340.91,768.94a56.42,56.42,0,0,1-5.46-11.43L318.39,709.7c-1-3.64-1.24-6.5-.69-8.59a10.19,10.19,0,0,1,2.78-5v-.23H289.73v.23a8.69,8.69,0,0,1,2.73,4.88q.75,3.24-.64,8.7l-16.6,47.81q-4.52,12.76-11.25,18.8v.23h24.37v-.23c-1-.93-1.55-2.49-1.63-4.7s.54-5.39,1.86-9.57l1-2.79h29.94L320.6,762q2,6.15,1.8,9.57c-.12,2.29-.72,3.85-1.8,4.7v.23h26.23v-.23A30.87,30.87,0,0,1,340.91,768.94Zm-47.47-21.06,4.3-12.3q5.44-15.44,6.49-24.26h.47q1.05,8.25,6.73,24.26l4.29,12.3Z"/><path class="cls-1" d="M411.93,733.61v-.35q5.22-.81,9.28-5.75a17.26,17.26,0,0,0,4.06-11.31q0-20.31-26.22-20.31H367v.23q6.84,4.77,6.84,17.76v44.56q0,12.64-6.84,17.87v.23H402.3q12.06,0,19.61-6.32t7.54-17.47a18.1,18.1,0,0,0-5.16-12.64A19.93,19.93,0,0,0,411.93,733.61Zm-22.17-26.35h8.36q10.78,0,10.79,9.75c0,3.64-1,6.4-2.84,8.3s-4.55,2.84-7.95,2.84h-8.36Zm19.85,54.37q-3.25,3.54-9.63,3.54H389.76V739.41H400q6.38,0,9.63,3.42t3.25,9.34Q412.86,758.1,409.61,761.63Z"/><path class="cls-1" d="M498.73,693.57q-20,0-31.5,11.84T455.68,737q0,18.35,11.14,30.12T497,778.87q19.38,0,31.28-12t11.89-31.5q0-18.69-11.43-30.23T498.73,693.57ZM516,758.5a22.14,22.14,0,0,1-17.82,8.3q-12.18,0-18.68-8.24T473,735.81q0-13.69,6.61-21.93t18-8.24q11.83,0,18.57,8.12t6.73,22.75Q522.87,750.21,516,758.5Z"/><path class="cls-1" d="M612.46,733.61v-.35a14.93,14.93,0,0,0,9.28-5.75,17.27,17.27,0,0,0,4.07-11.31q0-20.31-26.23-20.31h-32v.23q6.84,4.77,6.85,17.76v44.56q0,12.64-6.85,17.87v.23h35.28q12.06,0,19.61-6.32T630,752.75a18.1,18.1,0,0,0-5.16-12.64A19.88,19.88,0,0,0,612.46,733.61ZM590.3,707.26h8.35q10.8,0,10.79,9.75c0,3.64-.94,6.4-2.84,8.3s-4.55,2.84-8,2.84H590.3Zm19.84,54.37q-3.25,3.54-9.63,3.54H590.3V739.41h10.21q6.38,0,9.63,3.42t3.25,9.34Q613.39,758.1,610.14,761.63Z"/><path class="cls-1" d="M692.77,765.17H680.12V739.06H690.8q9.86,0,12.64,7.31h.24l3.36-19.5a145.68,145.68,0,0,1-18.1.82h-8.82V707.26h15.32q14,0,18.22,8.59l.23-.12-2-20.77a59.79,59.79,0,0,1-12.31.93H658v.23a13.62,13.62,0,0,1,4.41,6.09,28.45,28.45,0,0,1,1.86,11.09v45.84a28.45,28.45,0,0,1-1.86,11q-1.86,4.41-4.41,6.15v.23h41a90.12,90.12,0,0,1,14.16.93l3.25-23.09-.24-.12Q708.44,765.18,692.77,765.17Z"/><path class="cls-1" d="M792.22,711a19.91,19.91,0,0,1-1.16-9.06,9.51,9.51,0,0,1,2.9-5.8v-.23h-31.8v.23q5.12,4.65,1.16,16.13l-18.1,52.81c-4.64-.16-8.16-.31-10.56-.47l5.92,23.79h.23a13.36,13.36,0,0,1,5.63-8.59,18.7,18.7,0,0,1,11.08-3.25h41a18.63,18.63,0,0,1,11,3.2,13.69,13.69,0,0,1,5.69,8.64h.23l5.92-23.79c-2.25.16-5.61.31-10.1.47ZM761,765.06l9.64-29q5.33-16.35,6.73-25.3h.46q1,9.4,6.5,25.3l9.86,29Z"/><path class="cls-1" d="M895,731.23q-8-6.56-22.22-6.56h-9.52V713.3a28.51,28.51,0,0,1,1.86-11q1.86-4.41,4.41-6.15v-.23h-16a183.8,183.8,0,0,1-19.85-.81l-5,25.88.23.11q6.86-11,18.45-12.76v50.83a29.12,29.12,0,0,1-1.85,11.08q-1.86,4.47-4.41,6.09v.23h31.68q14.38,0,22.28-6.84t7.89-20.08Q902.93,737.79,895,731.23Zm-12.59,30.34q-3.95,3.38-12.42,3.37h-6.73V736.16H870q8.47,0,12.42,3.48t4,11Q886.34,758.22,882.39,761.57Z"/><path class="cls-1" d="M235.12,814.1a11.82,11.82,0,0,1,3.94-2.56,13.86,13.86,0,0,1,9.61-.08,10.83,10.83,0,0,1,4,2.67l2-2a12.17,12.17,0,0,0-4.74-3.21,16.84,16.84,0,0,0-6-1.07,16.54,16.54,0,0,0-6.13,1.11,14.8,14.8,0,0,0-4.89,3.13,14.26,14.26,0,0,0-3.23,4.74,15.89,15.89,0,0,0,0,11.92,14.31,14.31,0,0,0,8.08,7.88,17.38,17.38,0,0,0,12.17,0,12.23,12.23,0,0,0,4.74-3.24l-2-2a11.14,11.14,0,0,1-4,2.69,13.64,13.64,0,0,1-9.61-.07,11.52,11.52,0,0,1-3.94-2.56,12,12,0,0,1-2.63-3.86,12.29,12.29,0,0,1,2.63-13.56Z"/><polygon class="cls-1" points="282.55 832.47 282.55 808.12 279.48 808.12 279.48 837.51 282.3 837.51 301.1 813.2 301.1 837.51 304.16 837.51 304.16 808.12 301.35 808.12 282.55 832.47"/><path class="cls-1" d="M334.72,820.72a55.1,55.1,0,0,1-.75,8,11,11,0,0,1-1.75,4.62,3.64,3.64,0,0,1-3,1.49,5.54,5.54,0,0,1-1.38-.17l-.26,2.77a10,10,0,0,0,1.22.24,10.28,10.28,0,0,0,1.13.06,5.44,5.44,0,0,0,3.36-1,7.3,7.3,0,0,0,2.27-3.15,22.31,22.31,0,0,0,1.34-5.33,73.09,73.09,0,0,0,.63-7.62l.35-9.82H352v26.7h3.06V808.12H335.14Z"/><path class="cls-1" d="M392.52,808.12l-13.43,29.39h3.23l3.51-7.85h16.4l3.51,7.85H409l-13.43-29.39Zm-5.56,19,7.07-15.8,7.07,15.8Z"/><path class="cls-1" d="M483.61,823.91a9.3,9.3,0,0,0-3.79-1.59,9.16,9.16,0,0,0,2.32-1.16A7.23,7.23,0,0,0,482,810a12.38,12.38,0,0,0-7.32-1.91H462.49v29.39h13c3.55,0,6.21-.7,8-2.08a7,7,0,0,0,2.67-5.86A6.65,6.65,0,0,0,483.61,823.91ZM465.56,810.6h9a8.62,8.62,0,0,1,5.23,1.36,5.43,5.43,0,0,1,0,8.11,8.69,8.69,0,0,1-5.23,1.36h-9Zm15.61,23a9.59,9.59,0,0,1-5.66,1.39h-9.95V823.82h9.95a9.83,9.83,0,0,1,5.66,1.35,4.73,4.73,0,0,1,1.93,4.19A4.9,4.9,0,0,1,481.17,833.64Z"/><polygon class="cls-1" points="541.78 837.51 544.85 837.51 544.85 810.81 563.44 810.81 563.44 837.51 566.51 837.51 566.51 808.12 541.78 808.12 541.78 837.51"/><path class="cls-1" d="M612.26,809.32a15.65,15.65,0,0,0-6.42-1.2h-11v29.39H598v-9.28h7.89a15.48,15.48,0,0,0,6.42-1.22,9.39,9.39,0,0,0,4.14-3.46,9.7,9.7,0,0,0,1.44-5.35,9.87,9.87,0,0,0-1.44-5.44A9.35,9.35,0,0,0,612.26,809.32Zm.19,14.27q-2.3,1.9-6.7,1.91H598V810.81h7.8q4.41,0,6.7,1.93a6.78,6.78,0,0,1,2.29,5.46A6.64,6.64,0,0,1,612.45,823.59Z"/><path class="cls-1" d="M650.25,808.12l-13.43,29.39h3.23l3.51-7.85H660l3.51,7.85h3.27l-13.43-29.39Zm-5.56,19,7.07-15.8,7.07,15.8Z"/><path class="cls-1" d="M711.91,823.91a9.26,9.26,0,0,0-3.78-1.59,9.26,9.26,0,0,0,2.31-1.16,6.4,6.4,0,0,0,2.56-5.52,6.49,6.49,0,0,0-2.66-5.61,12.41,12.41,0,0,0-7.33-1.91H690.8v29.39h13c3.55,0,6.22-.7,8-2.08a7,7,0,0,0,2.66-5.86A6.63,6.63,0,0,0,711.91,823.91Zm-18-13.31h9a8.62,8.62,0,0,1,5.23,1.36,5.41,5.41,0,0,1,0,8.11,8.69,8.69,0,0,1-5.23,1.36h-9Zm15.61,23a9.59,9.59,0,0,1-5.66,1.39h-9.95V823.82h9.95a9.83,9.83,0,0,1,5.66,1.35,4.74,4.74,0,0,1,1.94,4.19A4.91,4.91,0,0,1,709.47,833.64Z"/><polygon class="cls-1" points="743.77 834.82 743.77 823.91 758.96 823.91 758.96 821.26 743.77 821.26 743.77 810.81 760.81 810.81 760.81 808.12 740.66 808.12 740.66 837.51 761.44 837.51 761.44 834.82 743.77 834.82"/></svg>