<svg width="1105" height="356" viewBox="0 0 1105 356" fill="none" xmlns="http://www.w3.org/2000/svg">
<path d="M166.07 115.805L171.239 119.826C181.653 127.744 192.557 135 203.887 141.55V168.089C167.702 151.366 135.659 125.467 113.187 104.421C122.729 95.1959 131.782 85.4819 140.311 75.3185L142.15 73.0725L106.511 0L70.8572 73.0946L72.696 75.3405C81.225 85.504 90.2788 95.2179 99.8204 104.443C77.3485 125.489 45.291 151.388 9.12024 168.089V141.535C20.4499 134.985 31.3543 127.73 41.7685 119.811L46.9378 115.791L0 86.8651V182L6.35094 179.297C46.8861 162.022 82.2815 133.641 106.504 110.813C130.718 133.582 166.114 161.992 206.649 179.297L213 182V86.8651L166.07 115.805ZM9.12024 103.176L30.8611 116.579C25.9871 120.099 18.1519 125.541 9.12024 130.983V103.176ZM106.511 98.0657C93.9569 85.8415 85.2428 75.9739 81.6317 71.8059L106.511 20.8105L131.376 71.828C127.765 76.0401 119.065 85.8415 106.511 98.0657ZM203.88 130.975C194.856 125.541 187.02 120.106 182.139 116.579L203.88 103.176V130.975Z" fill="#E4C492"/>
<path d="M213.07 192.059C185.786 181.385 129.967 144.865 108.949 120.362L107 118L104.566 120.934C83.2386 145.437 28.0086 181.487 0.930439 192.095C-2.27599 226.025 2.57042 249.919 19.1321 277.474C28.7955 293.467 45.541 309.687 61.8379 323.207C58.6315 318.505 58.4256 316.803 58.2049 312.937C57.999 309.401 59.536 304.331 64.5295 295.66C66.5372 292.175 69.2068 288.243 72.1853 283.372C82.6797 266.213 89.019 260.417 93.8581 255.876C98.6971 251.335 107.228 242.458 114.715 235.386C122.444 228.109 129.798 217.009 133.909 208.418C129.445 215.754 122.922 223.164 116.421 229.693C109.92 236.222 94.9612 249.053 86.1141 258.4C79.9688 265.054 74.4082 272.224 69.4936 279.829C64.1765 288.089 59.8817 296.826 58.2197 302.908C52.807 293.547 52.9026 278.244 55.3589 264.467C57.8152 250.689 64.7208 235.379 69.17 230.331C67.8599 236.259 67.2918 242.326 67.4786 248.393C68.7067 240.888 76.9949 228.49 84.0549 222.218C91.115 215.945 108.912 204.457 118.274 197.722C127.636 190.988 134.527 179.807 134.527 179.807L134.983 188.53C134.983 188.53 144.882 172.537 149.794 164.878C159.465 199.167 147.875 215.168 141.124 230.016C137.167 238.717 126.496 251.1 118.186 259.595C114.8 263.078 111.239 266.386 107.515 269.507C110.331 268.407 113.039 267.049 115.604 265.45C113.229 270.343 105.676 278.699 98.8001 285.045C94.7706 288.747 90.5167 292.199 86.0626 295.381C89.6677 294.62 93.2277 293.66 96.7262 292.505C86.1435 304.757 73.1928 306.063 67.6992 307.288C62.1762 309.129 63.9633 316.348 64.581 319.106C64.9267 320.662 66.7873 324.975 68.3758 328.475C80.4679 338.068 93.0375 347.047 106.037 355.376L107.015 356L108.184 355.266C117.009 349.654 173.394 312.988 194.861 277.503C211.43 249.919 216.276 226.025 213.07 192.059Z" fill="#E4C492"/>
<path d="M358.51 217.59C357.179 214.08 356.55 210.342 356.66 206.59V160.73C356.66 151.523 358.4 145.797 361.88 143.55V143.32H290.16V143.55C293.56 145.803 295.263 151.53 295.27 160.73V206.57C295.382 210.323 294.75 214.062 293.41 217.57C292.17 220.51 290.7 222.56 289 223.72V223.95H317.43V223.72C315.418 222.144 313.889 220.034 313.02 217.63C311.672 214.097 311.043 210.33 311.17 206.55V154.93H340.76V206.57C340.874 210.329 340.221 214.072 338.84 217.57C337.567 220.51 336.08 222.56 334.38 223.72V223.95H362.81V223.72C361.177 222.573 359.743 220.53 358.51 217.59Z" fill="#E4C492"/>
<path d="M423.85 143.32H392.17V143.55C393.87 144.643 395.34 146.643 396.58 149.55C397.914 152.966 398.546 156.615 398.44 160.28V206.59C398.552 210.343 397.92 214.082 396.58 217.59C395.34 220.53 393.87 222.58 392.17 223.74V223.97H420.6V223.74C418.9 222.66 417.43 220.66 416.19 217.74C414.856 214.321 414.224 210.668 414.33 207V197.43H423.85C433.29 197.43 440.523 195.097 445.55 190.43C450.577 185.763 453.09 178.8 453.09 169.54C453.09 161.18 450.54 154.72 445.44 150.16C440.34 145.6 433.143 143.32 423.85 143.32ZM432.85 182.02C430.337 184.687 426.45 185.983 421.19 185.91L414.34 185.79V154.79H421.19C426.45 154.79 430.337 156.047 432.85 158.56C435.363 161.073 436.623 165 436.63 170.34C436.623 175.467 435.36 179.36 432.84 182.02H432.85Z" fill="#E4C492"/>
<path d="M542.92 216.37C540.677 212.777 538.845 208.943 537.46 204.94L520.4 157.13C519.4 153.49 519.16 150.63 519.71 148.54C520.14 146.642 521.105 144.907 522.49 143.54V143.31H491.74V143.54C493.163 144.821 494.122 146.537 494.47 148.42C494.97 150.58 494.757 153.48 493.83 157.12L477.23 204.93C474.217 213.437 470.467 219.703 465.98 223.73V223.96H490.35V223.73C489.35 222.8 488.8 221.24 488.72 219.03C488.64 216.82 489.26 213.64 490.58 209.46L491.58 206.67H521.52L522.61 209.43C523.943 213.53 524.543 216.72 524.41 219C524.29 221.29 523.69 222.85 522.61 223.7V223.93H548.84V223.7C546.503 221.574 544.507 219.102 542.92 216.37ZM495.45 195.31L499.75 183.01C503.377 172.717 505.54 164.63 506.24 158.75H506.71C507.41 164.25 509.653 172.337 513.44 183.01L517.73 195.31H495.45Z" fill="#E4C492"/>
<path d="M613.94 181.04V180.69C617.42 180.15 620.513 178.233 623.22 174.94C625.884 171.778 627.325 167.765 627.28 163.63C627.28 150.09 618.54 143.32 601.06 143.32H569.01V143.55C573.57 146.73 575.85 152.65 575.85 161.31V205.87C575.85 214.297 573.57 220.253 569.01 223.74V223.97H604.31C612.35 223.97 618.887 221.863 623.92 217.65C628.953 213.437 631.467 207.613 631.46 200.18C631.456 195.455 629.604 190.918 626.3 187.54C623.099 183.954 618.709 181.645 613.94 181.04ZM591.77 154.69H600.13C607.317 154.69 610.913 157.94 610.92 164.44C610.92 168.08 609.92 170.84 608.08 172.74C606.24 174.64 603.53 175.58 600.13 175.58H591.77V154.69ZM611.62 209.06C609.453 211.42 606.243 212.6 601.99 212.6H591.77V186.84H602.01C606.263 186.84 609.473 187.98 611.64 190.26C613.807 192.54 614.89 195.653 614.89 199.6C614.877 203.553 613.787 206.707 611.62 209.06Z" fill="#E4C492"/>
<path d="M700.74 141C687.407 141 676.907 144.947 669.24 152.84C661.573 160.733 657.723 171.263 657.69 184.43C657.69 196.663 661.403 206.703 668.83 214.55C676.257 222.397 686.317 226.313 699.01 226.3C711.93 226.3 722.357 222.3 730.29 214.3C738.223 206.3 742.187 195.8 742.18 182.8C742.18 170.34 738.37 160.263 730.75 152.57C723.13 144.877 713.127 141.02 700.74 141ZM718.01 205.93C715.879 208.592 713.163 210.726 710.072 212.166C706.981 213.606 703.599 214.312 700.19 214.23C692.07 214.23 685.843 211.483 681.51 205.99C677.177 200.497 675.01 192.913 675.01 183.24C675.01 174.113 677.213 166.803 681.62 161.31C686.027 155.817 692.027 153.07 699.62 153.07C707.507 153.07 713.697 155.777 718.19 161.19C722.683 166.603 724.927 174.187 724.92 183.94C724.893 193.073 722.59 200.403 718.01 205.93Z" fill="#E4C492"/>
<path d="M814.47 181.04V180.69C818.178 180.014 821.493 177.959 823.75 174.94C826.417 171.779 827.861 167.766 827.82 163.63C827.82 150.09 819.077 143.32 801.59 143.32H769.59V143.55C774.15 146.73 776.433 152.65 776.44 161.31V205.87C776.44 214.297 774.157 220.253 769.59 223.74V223.97H804.87C812.91 223.97 819.447 221.863 824.48 217.65C829.513 213.437 832.023 207.613 832.01 200.18C832.006 195.455 830.154 190.918 826.85 187.54C823.647 183.946 819.248 181.636 814.47 181.04ZM792.31 154.69H800.66C807.86 154.69 811.457 157.94 811.45 164.44C811.45 168.08 810.51 170.84 808.61 172.74C806.71 174.64 804.06 175.58 800.61 175.58H792.31V154.69ZM812.15 209.06C809.983 211.42 806.773 212.6 802.52 212.6H792.31V186.84H802.52C806.773 186.84 809.983 187.98 812.15 190.26C814.317 192.54 815.4 195.653 815.4 199.6C815.4 203.553 814.317 206.707 812.15 209.06Z" fill="#E4C492"/>
<path d="M894.78 212.6H882.13V186.49H892.81C899.383 186.49 903.597 188.927 905.45 193.8H905.69L909.05 174.3C903.04 174.949 896.995 175.222 890.95 175.12H882.13V154.69H897.45C906.783 154.69 912.857 157.553 915.67 163.28L915.9 163.16L913.9 142.39C909.84 143.124 905.714 143.436 901.59 143.32H860.01V143.55C862.022 145.126 863.551 147.236 864.42 149.64C865.772 153.176 866.404 156.946 866.28 160.73V206.57C866.392 210.323 865.76 214.062 864.42 217.57C863.18 220.51 861.71 222.56 860.01 223.72V223.95H901.01C905.747 223.887 910.482 224.198 915.17 224.88L918.42 201.79L918.18 201.67C913.027 208.963 905.227 212.607 894.78 212.6Z" fill="#E4C492"/>
<path d="M994.23 158.43C993.146 155.541 992.749 152.439 993.07 149.37C993.327 147.157 994.354 145.104 995.97 143.57V143.34H964.17V143.57C967.583 146.67 967.97 152.047 965.33 159.7L947.23 212.51C942.59 212.35 939.07 212.2 936.67 212.04L942.59 235.83H942.82C943.145 234.098 943.81 232.447 944.777 230.972C945.743 229.498 946.991 228.23 948.45 227.24C951.708 225.015 955.586 223.877 959.53 223.99H1000.53C1004.44 223.875 1008.29 224.994 1011.53 227.19C1014.48 229.215 1016.53 232.317 1017.22 235.83H1017.45L1023.37 212.04C1021.12 212.2 1017.76 212.35 1013.27 212.51L994.23 158.43ZM963.01 212.49L972.65 183.49C976.203 172.59 978.447 164.157 979.38 158.19H979.84C980.507 164.457 982.673 172.89 986.34 183.49L996.2 212.49H963.01Z" fill="#E4C492"/>
<path d="M1097.01 178.66C1091.68 174.287 1084.27 172.1 1074.79 172.1H1065.27V160.73C1065.16 156.977 1065.79 153.238 1067.13 149.73C1068.37 146.79 1069.84 144.74 1071.54 143.58V143.35H1055.54C1048.91 143.438 1042.29 143.168 1035.69 142.54L1030.69 168.42L1030.92 168.53C1035.49 161.197 1041.64 156.943 1049.37 155.77V206.6C1049.48 210.378 1048.85 214.142 1047.52 217.68C1046.28 220.66 1044.81 222.69 1043.11 223.77V224H1074.79C1084.38 224 1091.8 221.72 1097.07 217.16C1102.34 212.6 1104.97 205.907 1104.96 197.08C1104.95 189.173 1102.3 183.033 1097.01 178.66ZM1084.42 209C1081.79 211.253 1077.65 212.377 1072 212.37H1065.27V183.59H1072.01C1077.66 183.59 1081.8 184.75 1084.43 187.07C1087.06 189.39 1088.4 193.057 1088.43 198.07C1088.38 203.123 1087.03 206.767 1084.4 209H1084.42Z" fill="#E4C492"/>
<path d="M437.13 261.53C438.259 260.422 439.599 259.551 441.07 258.97C444.161 257.798 447.57 257.77 450.68 258.89C452.197 259.469 453.564 260.381 454.68 261.56L456.68 259.56C455.378 258.128 453.753 257.028 451.94 256.35C450.022 255.631 447.988 255.269 445.94 255.28C443.845 255.258 441.765 255.635 439.81 256.39C437.989 257.1 436.327 258.164 434.92 259.52C433.533 260.865 432.434 262.478 431.69 264.26C430.143 268.083 430.143 272.357 431.69 276.18C432.432 277.973 433.531 279.596 434.92 280.95C436.309 282.305 437.959 283.363 439.77 284.06C443.694 285.527 448.016 285.527 451.94 284.06C453.755 283.371 455.379 282.261 456.68 280.82L454.68 278.82C453.559 279.998 452.194 280.916 450.68 281.51C447.574 282.653 444.159 282.628 441.07 281.44C439.595 280.866 438.254 279.995 437.13 278.88C436.009 277.778 435.115 276.467 434.5 275.02C433.529 272.757 433.261 270.253 433.73 267.836C434.199 265.418 435.383 263.197 437.13 261.46V261.53Z" fill="#E4C492"/>
<path d="M484.56 279.9V255.55H481.49V284.94H484.31L503.11 260.63V284.94H506.17V255.55H503.36L484.56 279.9Z" fill="#E4C492"/>
<path d="M536.73 268.15C536.675 270.831 536.424 273.505 535.98 276.15C535.754 277.803 535.156 279.383 534.23 280.77C533.886 281.24 533.434 281.621 532.912 281.881C532.39 282.14 531.813 282.27 531.23 282.26C530.765 282.262 530.301 282.204 529.85 282.09L529.59 284.86C529.991 284.965 530.399 285.045 530.81 285.1C531.185 285.141 531.562 285.161 531.94 285.16C533.14 285.207 534.321 284.855 535.3 284.16C536.327 283.334 537.112 282.246 537.57 281.01C538.235 279.295 538.685 277.505 538.91 275.68C539.253 273.153 539.463 270.609 539.54 268.06L539.89 258.24H554.01V284.94H557.07V255.55H537.15L536.73 268.15Z" fill="#E4C492"/>
<path d="M594.53 255.55L581.1 284.94H584.33L587.84 277.09H604.24L607.75 284.94H611.01L597.58 255.55H594.53ZM588.97 274.55L596.04 258.75L603.11 274.55H588.97Z" fill="#E4C492"/>
<path d="M685.62 271.34C684.491 270.534 683.196 269.991 681.83 269.75C682.654 269.475 683.436 269.085 684.15 268.59C684.965 267.901 685.617 267.041 686.06 266.071C686.503 265.1 686.726 264.044 686.713 262.977C686.7 261.91 686.45 260.86 685.983 259.901C685.516 258.942 684.842 258.098 684.01 257.43C681.829 256.045 679.27 255.377 676.69 255.52H664.5V284.91H677.5C681.05 284.91 683.71 284.21 685.5 282.83C686.382 282.138 687.084 281.245 687.549 280.225C688.013 279.205 688.227 278.089 688.17 276.97C688.232 275.895 688.033 274.821 687.589 273.841C687.145 272.86 686.469 272.002 685.62 271.34ZM667.57 258.03H676.57C678.414 257.911 680.248 258.388 681.8 259.39C682.372 259.899 682.83 260.524 683.143 261.223C683.457 261.922 683.619 262.679 683.619 263.445C683.619 264.211 683.457 264.968 683.143 265.667C682.83 266.366 682.372 266.991 681.8 267.5C680.246 268.498 678.414 268.974 676.57 268.86H667.57V258.03ZM683.18 281.03C681.483 282.069 679.505 282.555 677.52 282.42H667.57V271.25H677.52C679.5 271.118 681.473 271.589 683.18 272.6C683.833 273.076 684.353 273.71 684.69 274.444C685.028 275.177 685.173 275.985 685.11 276.79C685.172 277.608 685.028 278.428 684.691 279.176C684.354 279.924 683.834 280.575 683.18 281.07V281.03Z" fill="#E4C492"/>
<path d="M743.79 284.94H746.86V258.24H765.45V284.94H768.52V255.55H743.79V284.94Z" fill="#E4C492"/>
<path d="M814.27 256.75C812.238 255.903 810.051 255.494 807.85 255.55H796.85V284.94H800.01V275.66H807.9C810.102 275.715 812.291 275.299 814.32 274.44C816.009 273.717 817.448 272.513 818.46 270.98C819.45 269.375 819.95 267.515 819.9 265.63C819.958 263.715 819.458 261.825 818.46 260.19C817.434 258.655 815.976 257.458 814.27 256.75ZM814.46 271.02C812.927 272.287 810.693 272.923 807.76 272.93H800.01V258.24H807.81C810.75 258.24 812.983 258.883 814.51 260.17C815.28 260.848 815.886 261.691 816.282 262.637C816.679 263.583 816.856 264.606 816.8 265.63C816.85 266.648 816.664 267.663 816.259 268.598C815.853 269.533 815.237 270.361 814.46 271.02Z" fill="#E4C492"/>
<path d="M852.26 255.55L838.83 284.94H842.06L845.57 277.09H862.01L865.52 284.94H868.79L855.36 255.55H852.26ZM846.7 274.55L853.77 258.75L860.84 274.55H846.7Z" fill="#E4C492"/>
<path d="M913.92 271.34C912.795 270.534 911.503 269.991 910.14 269.75C910.96 269.473 911.738 269.083 912.45 268.59C913.301 267.955 913.981 267.117 914.428 266.154C914.875 265.19 915.075 264.13 915.01 263.07C915.071 261.987 914.859 260.906 914.394 259.926C913.93 258.946 913.227 258.098 912.35 257.46C910.165 256.075 907.603 255.407 905.02 255.55H892.81V284.94H905.81C909.36 284.94 912.03 284.24 913.81 282.86C914.69 282.167 915.39 281.273 915.853 280.254C916.316 279.234 916.528 278.118 916.47 277C916.539 275.92 916.343 274.84 915.898 273.853C915.454 272.866 914.775 272.004 913.92 271.34ZM895.92 258.03H904.92C906.764 257.911 908.597 258.388 910.15 259.39C910.725 259.898 911.185 260.522 911.5 261.221C911.816 261.92 911.979 262.678 911.979 263.445C911.979 264.212 911.816 264.97 911.5 265.669C911.185 266.368 910.725 266.992 910.15 267.5C908.595 268.498 906.763 268.974 904.92 268.86H895.92V258.03ZM911.53 281.03C909.833 282.069 907.855 282.555 905.87 282.42H895.92V271.25H905.87C907.85 271.119 909.823 271.589 911.53 272.6C912.184 273.075 912.705 273.709 913.045 274.443C913.384 275.176 913.531 275.984 913.47 276.79C913.525 277.613 913.371 278.437 913.023 279.185C912.675 279.933 912.144 280.581 911.48 281.07L911.53 281.03Z" fill="#E4C492"/>
<path d="M945.78 282.25V271.34H960.97V268.69H945.78V258.24H962.82V255.55H942.67V284.94H963.45V282.25H945.78Z" fill="#E4C492"/>
</svg>
